<svg width="126" height="118" viewBox="0 0 126 118" fill="none" xmlns="http://www.w3.org/2000/svg">
<path fill-rule="evenodd" clip-rule="evenodd" d="M88.2323 15.3958L122.905 77.6679C127.282 85.931 126.974 95.8906 122.095 103.867C116.92 112.348 107.662 117.477 97.7275 117.368C95.2421 117.368 93.2274 115.353 93.2274 112.868C93.2274 110.382 95.2421 108.368 97.7275 108.368C104.506 108.454 110.832 104.974 114.387 99.2008C117.649 93.9614 117.869 87.3791 114.963 81.934L80.3122 19.6619C76.9749 13.2138 70.2639 9.22162 63.0048 9.36567C55.7872 9.21163 49.105 13.1585 45.756 19.5539L10.9749 82.042C8.1144 87.4655 8.35439 94.0014 11.6049 99.2008C15.1627 104.979 21.497 108.461 28.2822 108.368H40.5044V81.367C40.5044 71.4259 48.5636 63.3667 58.5048 63.3667H67.5049C77.4461 63.3667 85.5053 71.4259 85.5053 81.367V112.868C85.5053 115.353 83.4906 117.368 81.0052 117.368H28.2822C18.3479 117.477 9.08973 112.348 3.91427 103.867C-0.955756 95.9284 -1.2841 86.0106 3.05025 77.7669L37.8314 15.2833C42.8765 6.06499 52.557 0.341969 63.0652 0.365459C73.5737 0.388899 83.2287 6.15503 88.2323 15.3958ZM58.5048 72.3668C53.534 72.3668 49.5046 76.3962 49.5046 81.367V108.368H76.5051V81.367C76.5051 76.3962 72.4757 72.3668 67.5049 72.3668H58.5048Z" fill="#FE853C"/>
</svg>
